#!OML:ASF H:\Terrain\Patient Classification 1\Terrain2\Thursday\justin.ASF
:FULLY-SPECIFIED
:DEGREES
2696
root 14.375 24.5739 0.0932383 365.873 -83.5332 362.163
lowerback 22.0064 -0.600302 6.89622
upperback 4.65655 0.749921 4.53488
thorax -7.1377 0.0940664 0.823963
lowerneck -16.2453 -3.24041 -10.7214
upperneck 31.3274 -3.53133 4.11143
head 13.5887 -2.48526 2.85326
rclavicle 1.59028e-015 4.77083e-014
rhumerus -19.484 -9.65002 -71.6946
rradius 44.1358
rwrist -18.3979
rhand -24.6575 14.4123
rfingers 7.12502
rthumb 1.84238 -15.5595
lclavicle 1.59028e-015 4.77083e-014
lhumerus -32.401 -2.19652 89.0402
lradius 35.2961
lwrist 7.14041
lhand -21.8755 18.5497
lfingers 7.12502
lthumb 4.52904 48.4812
rfemur -55.9729 -19.3315 30.2129
rtibia 75.4991
rfoot -26.1537 0.733536
rtoes 11.6033
lfemur -18.5836 1.25972 -16.561
ltibia 72.2563
lfoot -5.18794 -6.45327
ltoes 4.52432
2697
root 14.3176 24.7004 0.100687 366.037 -83.6891 361.881
lowerback 21.8472 -0.56581 7.06482
upperback 4.58337 0.827109 4.54987
thorax -7.12899 0.128956 0.723332
lowerneck -16.0494 -3.2364 -10.7223
upperneck 31.5268 -3.46383 3.77262
head 13.6221 -2.51456 2.7316
rclavicle 1.66979e-014 2.22639e-014
rhumerus -19.3353 -9.78369 -71.8155
rradius 43.9025
rwrist -18.4583
rhand -24.496 14.3139
rfingers 7.12502
rthumb 1.99838 -15.6564
lclavicle 1.66979e-014 2.22639e-014
lhumerus -32.4556 -2.02596 89.0737
lradius 35.0502
lwrist 6.88726
lhand -21.4944 18.2897
lfingers 7.12502
lthumb 4.89697 48.2131
rfemur -54.7212 -19.4685 30.0667
rtibia 73.9914
rfoot -25.8175 1.18411
rtoes 11.6581
lfemur -19.2264 1.31317 -16.6391
ltibia 73.6436
lfoot -6.26682 -6.3847
ltoes 4.53208
2698
root 14.2576 24.821 0.104895 367.447 -83.908 360.375
lowerback 21.5476 -0.468849 7.19259
upperback 4.57162 0.958393 4.6735
thorax -6.97885 0.193 0.747868
lowerneck -15.8865 -3.30372 -10.8944
upperneck 31.6552 -3.49314 3.60277
head 13.6493 -2.57988 2.6899
rclavicle -1.59028e-015 -6.20208e-014
rhumerus -19.1706 -9.67131 -71.879
rradius 43.7988
rwrist -18.6035
rhand -24.4486 14.1546
rfingers 7.12502
rthumb 2.0441 -15.8154
lclavicle -1.59028e-015 -6.20208e-014
lhumerus -32.4444 -1.99917 89.2781
lradius 34.8439
lwrist 6.78066
lhand -21.1917 18.2305
lfingers 7.12502
lthumb 5.18924 48.147
rfemur -53.3956 -19.4137 30.0527
rtibia 72.3652
rfoot -25.3658 1.39609
rtoes 11.7379
lfemur -19.8844 1.48418 -16.5426
ltibia 74.9435
lfoot -7.80735 -5.2346
ltoes -0.28013
2699
root 14.1999 24.942 0.114354 368.577 -84.1239 359.093
lowerback 21.3593 -0.446098 7.42478
upperback 4.56005 1.01852 4.65707
thorax -6.884 0.220119 0.581625
lowerneck -15.9817 -3.24007 -10.7875
upperneck 32.1157 -3.42013 3.48154
head 13.8589 -2.57199 2.63911
rclavicle -1.90833e-014 -6.99722e-014
rhumerus -19.0489 -9.53994 -72.1321
rradius 43.732
rwrist -18.4791
rhand -24.4512 13.8986
rfingers 7.12502
rthumb 2.04162 -16.0714
lclavicle -1.90833e-014 -6.99722e-014
lhumerus -32.5629 -1.95283 89.2537
lradius 34.7959
lwrist 6.67715
lhand -20.8804 17.8427
lfingers 7.12502
lthumb 5.48987 47.7516
rfemur -51.9586 -19.3837 29.9474
rtibia 70.6672
rfoot -24.7868 1.78884
rtoes 12.6371
lfemur -20.4725 1.56333 -16.5084
ltibia 76.1212
lfoot -9.03269 -4.32819
ltoes -2.41741
2700
root 14.1477 25.0575 0.126317 369.637 -84.3586 357.806
lowerback 21.4009 -0.401515 7.66194
upperback 4.51151 1.13468 4.61337
thorax -6.94702 0.269245 0.370693
lowerneck -16.0965 -3.16731 -10.6052
upperneck 32.658 -3.35959 3.35444
head 14.1105 -2.56455 2.57124
rclavicle 5.56597e-015 7.95139e-015
rhumerus -18.986 -9.51205 -72.3584
rradius 43.5104
rwrist -18.1452
rhand -24.5666 13.9457
rfingers 7.12502
rthumb 1.93015 -16.0253
lclavicle 5.56597e-015 7.95139e-015
lhumerus -32.7079 -2.38768 89.2412
lradius 34.7981
lwrist 6.98437
lhand -20.8321 17.9308
lfingers 7.12502
lthumb 5.53649 47.8384
rfemur -50.4831 -19.4214 29.8662
rtibia 68.9849
rfoot -24.3754 2.04296
rtoes 12.0436
lfemur -20.9951 1.67644 -16.5202
ltibia 77.1496
lfoot -9.9335 -4.23995
ltoes -1.6383
2701
root 14.0992 25.1694 0.128957 371.525 -84.6007 355.799
lowerback 21.3669 -0.314513 7.72003
upperback 4.44456 1.26785 4.66855
thorax -6.99639 0.330257 0.363414
lowerneck -16.1334 -3.11518 -10.5454
upperneck 33.0219 -3.30706 3.28299
head 14.2739 -2.56172 2.54392
rclavicle -1.82882e-014 -4.6118e-014
rhumerus -18.8381 -9.52186 -72.6159
rradius 43.1997
rwrist -18.0194
rhand -24.4359 14.0055
rfingers 7.12502
rthumb 2.05642 -15.9644
lclavicle -1.82882e-014 -4.6118e-014
lhumerus -32.8928 -2.17368 89.3115
lradius 34.7442
lwrist 6.85624
lhand -20.9993 18.6519
lfingers 7.12502
lthumb 5.37506 48.5637
rfemur -49.2059 -19.4019 29.9492
rtibia 67.3702
rfoot -24.0038 2.33021
rtoes 11.6628
lfemur -21.669 1.82012 -16.3953
ltibia 78.0231
lfoot -10.7674 -4.44357
ltoes -0.87022
2702
root 14.0472 25.2897 0.130933 372.104 -84.9102 355.227
lowerback 21.1691 -0.221466 7.57681
upperback 4.38144 1.35093 4.75659
thorax -6.96458 0.374657 0.517524
lowerneck -16.2238 -3.04155 -10.8518
upperneck 33.3645 -3.14822 3.36641
head 14.4452 -2.53778 2.66129
rclavicle 5.56597e-015 4.6118e-014
rhumerus -18.6637 -9.2305 -72.8238
rradius 43.0407
rwrist -18.0515
rhand -24.1161 13.6747
rfingers 7.12502
rthumb 2.36527 -16.2919
lclavicle 5.56597e-015 4.6118e-014
lhumerus -32.9225 -1.68304 89.3983
lradius 34.5308
lwrist 6.83444
lhand -21.252 18.8985
lfingers 7.12502
lthumb 5.13099 48.8164
rfemur -48.0501 -19.2078 29.7729
rtibia 65.8068
rfoot -23.4306 3.05601
rtoes 13.9239
lfemur -22.4172 1.95487 -16.4181
ltibia 78.686
lfoot -11.5305 -4.65346
ltoes 0.715328
2703
root 13.9957 25.4138 0.134937 369.989 -85.2463 357.264
lowerback 21.1151 -0.0685953 7.29157
upperback 4.32809 1.49409 4.79211
thorax -6.99924 0.449309 0.678741
lowerneck -16.1726 -3.02345 -11.0921
upperneck 33.5296 -3.04396 3.29515
head 14.5067 -2.54365 2.69289
rclavicle 2.14687e-014 6.36111e-015
rhumerus -18.6684 -8.8952 -72.8218
rradius 42.9556
rwrist -17.9097
rhand -23.7406 13.6418
rfingers 7.12502
rthumb 2.72786 -16.3205
lclavicle 2.14687e-014 6.36111e-015
lhumerus -32.9351 -1.36835 89.5861
lradius 34.3304
lwrist 6.75335
lhand -21.3851 18.6241
lfingers 7.12502
lthumb 5.00256 48.545
rfemur -46.7493 -18.9285 29.2023
rtibia 64.2265
rfoot -22.9068 3.7227
rtoes 16.122
lfemur -23.006 2.06562 -16.7421
ltibia 79.1311
lfoot -12.1896 -5.01985
ltoes 2.11242
2704
root 13.9515 25.5317 0.135201 370.428 -85.4718 356.714
lowerback 21.1402 0.00719037 7.16545
upperback 4.26939 1.57841 4.82852
thorax -7.07949 0.49049 0.767671
lowerneck -16.0345 -2.95471 -10.8751
upperneck 33.6271 -2.94446 3.00236
head 14.5013 -2.52218 2.5525
rclavicle 7.95139e-015 -3.33958e-014
rhumerus -18.6303 -8.47667 -73.0283
rradius 42.7737
rwrist -17.7642
rhand -23.4832 13.8881
rfingers 7.12502
rthumb 2.97642 -16.0708
lclavicle 7.95139e-015 -3.33958e-014
lhumerus -33.0373 -1.38274 89.6283
lradius 34.2764
lwrist 7.00256
lhand -20.9923 18.4835
lfingers 7.12502
lthumb 5.3818 48.3951
rfemur -45.4621 -18.7748 29.0089
rtibia 62.5575
rfoot -22.4371 4.02335
rtoes 16.1439
lfemur -23.5767 2.19187 -16.7993
ltibia 79.3949
lfoot -12.6954 -5.55349
ltoes 2.07965
2705
root 13.9121 25.6421 0.137606 375.842 -85.5159 351.263
lowerback 21.0612 -0.0633018 7.52191
upperback 4.21143 1.56184 4.86489
thorax -7.0911 0.473818 0.612262
lowerneck -15.9995 -2.85762 -10.6804
upperneck 33.7488 -2.8781 2.98838
head 14.5359 -2.47931 2.52582
rclavicle -1.59028e-015 1.11319e-014
rhumerus -18.384 -8.06742 -73.5293
rradius 42.4815
rwrist -17.5673
rhand -23.6793 14.0748
rfingers 7.12502
rthumb 2.78709 -15.8867
lclavicle -1.59028e-015 1.11319e-014
lhumerus -33.0528 -1.08701 89.3814
lradius 34.1345
lwrist 7.00075
lhand -20.7647 18.379
lfingers 7.12502
lthumb 5.6015 48.2849
rfemur -44.2472 -18.6485 29.352
rtibia 60.7972
rfoot -21.9167 4.14316
rtoes 16.4771
lfemur -24.2827 2.24512 -16.3823
ltibia 79.5073
lfoot -13.1911 -6.06377
ltoes 2.59735
